<svg width="24" height="24" viewBox="0 0 24 24" fill="none" xmlns="http://www.w3.org/2000/svg">
  <!-- Main board body -->
  <path d="M3 11 C3 10 3.8 9 5 9 L19.5 9 C20.5 9 21.2 9.8 21 11 L21 20 C21 21.2 20 22 19 22 L5.5 22 C4.2 22 3 21 3 19.8 Z"
        stroke="#ef4444" stroke-width="1.5" fill="white" stroke-linecap="round" stroke-linejoin="round"/>

  <!-- Broken clapper piece (tilted and separated) -->
  <path d="M1.5 6 L2.5 3 C2.7 2.3 3.3 1.8 4 1.7 L16 0.5 C17 0.4 17.8 1.2 17.7 2.2 L17.2 5.5"
        stroke="#ef4444" stroke-width="1.5" fill="white" stroke-linecap="round" stroke-linejoin="round"
        transform="rotate(-8, 10, 4)"/>

  <!-- Stripes on broken clapper -->
  <line x1="6.5" y1="2" x2="7" y2="5" stroke="#ef4444" stroke-width="1.5" stroke-linecap="round" transform="rotate(-8, 10, 4)"/>
  <line x1="12" y1="1.5" x2="12" y2="5" stroke="#ef4444" stroke-width="1.5" stroke-linecap="round" transform="rotate(-8, 10, 4)"/>

  <!-- Sad tilted frown -->
  <path d="M8 18 Q12 14 16 17" stroke="#ef4444" stroke-width="1.5" fill="none" stroke-linecap="round"/>
</svg>
